<svg width="245.777832" height="28.000000" viewBox="0 0 245.778 28" fill="none" xmlns="http://www.w3.org/2000/svg" xmlns:xlink="http://www.w3.org/1999/xlink">
	<desc>
			Created with Pixso.
	</desc>
	<defs>
		<clipPath id="clip67_1438">
			<rect id="Frame" width="245.777817" height="28.000000" fill="white" fill-opacity="0"/>
		</clipPath>
	</defs>
	<rect id="Frame" width="245.777817" height="28.000000" fill="#FFFFFF" fill-opacity="0"/>
	<g clip-path="url(#clip67_1438)">
		<path id="Vector" d="M9.39 17.89L9.39 12.22L0 4.96L0 15.05L9.39 22.31L9.39 27.99L22.45 17.89L22.45 7.8L9.39 17.89Z" fill="#5CB246" fill-opacity="1.000000" fill-rule="evenodd"/>
		<path id="Vector" d="M15.81 0L9.39 4.96L9.39 12.22L15.81 7.26L15.81 0Z" fill="#5CB246" fill-opacity="1.000000" fill-rule="evenodd"/>
		<path id="Vector" d="M39.31 5.02C41.08 5.02 42.52 5.59 43.6 6.71L43.59 6.71C44.67 7.84 45.22 9.38 45.22 11.3C45.22 13.21 44.67 14.76 43.59 15.88C42.52 17.01 41.08 17.58 39.31 17.58L34.37 17.58L34.37 22.96L31.51 22.96L31.51 5.02L39.31 5.02ZM73.76 22.96L80.23 5.02L84.96 5.02L91.43 22.96L88.31 22.96L86.89 18.98L78.3 18.98L76.88 22.96L73.76 22.96ZM151.17 5.02L154.28 5.02L154.28 5.02L155.74 5.02L155.74 22.96L152.88 22.96L152.88 9.09L152.22 9.09L147.81 22.96L143.66 22.96L139.26 9.09L138.6 9.09L138.6 22.96L135.74 22.96L135.74 5.02L137.05 5.02L137.05 5.02L140.15 5.02L140.15 5.02L140.83 5.02L145.41 19.5L146.06 19.5L150.65 5.02L151.17 5.02L151.17 5.02ZM39.16 14.87C40.11 14.87 40.89 14.54 41.48 13.9L41.48 13.9C42.05 13.27 42.34 12.4 42.34 11.3C42.34 10.21 42.05 9.33 41.48 8.7C40.89 8.06 40.11 7.73 39.16 7.73L34.37 7.73L34.37 14.87L39.16 14.87ZM82.21 7.99L79.21 16.41L85.98 16.41L82.98 7.99L82.21 7.99ZM70.15 14.7C69.92 13.9 69.15 12.22 66.75 12.22L66.75 12.21C65.64 12.21 64.7 12.62 63.95 13.43C63.2 14.22 62.82 15.26 62.82 16.5C62.82 17.74 63.2 18.77 63.95 19.57C64.7 20.37 65.64 20.78 66.75 20.78C69.15 20.78 69.92 19.11 70.15 18.31L72.82 18.31C72.65 19.4 72.07 20.51 71.2 21.46C70.72 21.99 70.1 22.42 69.37 22.73C68.6 23.05 67.71 23.22 66.75 23.22C64.82 23.22 63.21 22.59 61.97 21.34C60.73 20.08 60.09 18.46 60.09 16.5C60.09 14.54 60.73 12.92 61.97 11.67C63.22 10.42 64.83 9.78 66.75 9.78C67.72 9.78 68.6 9.95 69.37 10.28C70.1 10.59 70.72 11.02 71.2 11.54C72.08 12.49 72.65 13.61 72.82 14.7L70.15 14.7ZM108.94 10.61C109.77 10.06 110.7 9.79 111.71 9.79L111.72 9.78C113.41 9.78 114.84 10.41 115.98 11.63C117.13 12.87 117.71 14.51 117.71 16.5C117.71 18.5 117.13 20.13 115.98 21.37C114.84 22.6 113.41 23.22 111.72 23.22C110.61 23.22 109.66 22.97 108.89 22.47C108.56 22.25 108.29 22 108.08 21.74L107.98 21.63L107.39 21.63L107.39 27.99L104.66 27.99L104.66 10.05L107.17 10.05L107.44 11.51L107.98 11.51L108.08 11.39C108.3 11.1 108.6 10.84 108.94 10.61ZM126.56 9.79C128.48 9.79 130.09 10.42 131.33 11.67C132.58 12.93 133.21 14.55 133.21 16.51C133.21 18.47 132.58 20.09 131.33 21.34C130.09 22.59 128.48 23.23 126.56 23.23C124.63 23.23 123.03 22.59 121.78 21.34C120.54 20.09 119.9 18.47 119.9 16.51C119.9 14.55 120.54 12.93 121.78 11.67C123.03 10.42 124.63 9.79 126.56 9.79ZM199.92 11.65C201.15 12.88 201.77 14.43 201.77 16.24C201.77 16.91 201.68 17.41 201.68 17.41L191.43 17.41L191.46 17.61C191.61 18.64 192.05 19.48 192.76 20.1C193.48 20.74 194.36 21.06 195.38 21.06C196.16 21.06 196.83 20.88 197.37 20.55C197.84 20.26 198.18 19.94 198.38 19.6L201.24 19.6C201.15 19.81 201.03 20.03 200.89 20.26C200.64 20.65 200.28 21.1 199.83 21.59C199.38 22.05 198.77 22.45 198 22.75C197.22 23.07 196.33 23.23 195.38 23.23C193.46 23.23 191.85 22.59 190.61 21.34C189.36 20.09 188.73 18.47 188.73 16.51C188.73 14.55 189.36 12.93 190.61 11.67C191.86 10.42 193.46 9.79 195.38 9.79C197.16 9.79 198.69 10.42 199.92 11.65ZM208.74 10.62C209.58 10.07 210.51 9.79 211.51 9.79L211.52 9.79C213.21 9.79 214.64 10.41 215.78 11.64C216.93 12.88 217.51 14.52 217.51 16.51C217.51 18.5 216.93 20.14 215.78 21.38C214.64 22.6 213.21 23.23 211.52 23.23C210.41 23.23 209.45 22.98 208.69 22.48C208.36 22.25 208.08 22 207.88 21.75L207.78 21.64L207.19 21.64L207.19 28L204.46 28L204.46 10.06L206.97 10.06L207.24 11.52L207.78 11.52L207.88 11.4C208.1 11.11 208.39 10.85 208.74 10.62ZM221.76 10.99C222.67 10.2 223.96 9.8 225.59 9.79L225.59 9.79C227.21 9.8 228.54 10.27 229.54 11.19C230.53 12.12 231.03 13.28 231.03 14.65L231.03 22.96L228.79 22.96L228.52 21.64L227.98 21.64L227.89 21.75C227.68 22 227.39 22.25 227.03 22.48C226.23 22.98 225.29 23.23 224.25 23.23C222.84 23.23 221.69 22.85 220.85 22.11C220.01 21.37 219.6 20.49 219.6 19.43C219.6 18.15 220.05 17.12 220.94 16.37C221.85 15.62 223.18 15.23 224.92 15.23L228.31 15.23L228.31 14.66C228.31 13.82 228.06 13.13 227.57 12.62C227.08 12.1 226.41 11.83 225.59 11.83C224.83 11.83 224.2 12.03 223.72 12.43C223.32 12.76 223.06 13.14 222.94 13.55L220.2 13.55C220.41 12.57 220.93 11.7 221.76 10.99ZM96.11 22.96L93.39 22.96L93.39 10.05L102.28 10.05L102.28 12.62L96.11 12.62L96.11 22.96ZM53.02 16.71L53.55 16.71L56.88 10.06L59.73 10.06L53.82 21.45C53.34 22.38 52.38 22.96 51.32 22.96L48.86 22.96L48.86 20.73L51.11 20.73C51.38 20.73 51.62 20.58 51.74 20.34L51.98 19.85L46.65 10.06L49.5 10.06L53.02 16.71ZM162.24 19.36L162.75 19.36L167.3 10.06L171.08 10.06L171.08 22.96L168.35 22.96L168.35 13.66L167.84 13.66L163.29 22.96L159.51 22.96L159.51 10.06L162.24 10.06L162.24 19.36ZM177.36 15.36L183.47 15.36L183.47 10.06L186.2 10.06L186.2 22.96L183.47 22.96L183.47 17.93L177.36 17.93L177.36 22.96L174.63 22.96L174.63 10.06L177.36 10.06L177.36 15.36ZM235.42 18.55L235.42 10.06L245.77 10.06L245.77 22.96L243.05 22.96L243.05 12.49L238.15 12.49L238.15 18.75C238.15 21.51 236.59 23.09 233.9 23.09L233.46 23.09L233.46 20.66C234.79 20.62 235.42 19.95 235.42 18.55ZM195.38 11.96C194.34 11.96 193.47 12.27 192.8 12.88L192.8 12.88C192.14 13.48 191.69 14.27 191.46 15.25L191.41 15.51L199.08 15.51L199.04 15.27C198.86 14.3 198.46 13.51 197.84 12.9C197.2 12.28 196.42 11.96 195.38 11.96ZM111.18 20.79C112.3 20.79 113.22 20.4 113.92 19.64C114.62 18.89 114.97 17.84 114.97 16.51C114.97 15.18 114.62 14.12 113.92 13.37C113.22 12.61 112.3 12.22 111.18 12.22C110.05 12.22 109.13 12.61 108.43 13.37C107.73 14.12 107.38 15.18 107.38 16.51C107.38 17.83 107.73 18.89 108.43 19.64C109.13 20.4 110.05 20.79 111.18 20.79ZM126.56 20.79C127.66 20.79 128.61 20.38 129.36 19.58C130.1 18.78 130.49 17.75 130.49 16.51C130.49 15.27 130.11 14.23 129.36 13.44C128.61 12.63 127.66 12.22 126.56 12.22C125.46 12.22 124.52 12.63 123.77 13.44C123.02 14.24 122.64 15.27 122.64 16.51C122.64 17.75 123.02 18.78 123.77 19.58C124.52 20.38 125.46 20.79 126.56 20.79ZM210.97 20.8C212.1 20.8 213.02 20.41 213.72 19.65C214.42 18.89 214.77 17.84 214.77 16.51C214.77 15.18 214.42 14.13 213.72 13.38C213.02 12.62 212.1 12.23 210.97 12.23C209.85 12.23 208.93 12.62 208.23 13.38C207.53 14.13 207.18 15.19 207.18 16.51C207.18 17.84 207.53 18.89 208.23 19.65C208.93 20.41 209.85 20.8 210.97 20.8ZM227.38 20.3C228 19.7 228.32 18.87 228.32 17.84L228.32 17.13L225.2 17.13C222.84 17.13 222.34 18.23 222.34 19.16C222.34 19.79 222.57 20.29 223.02 20.65C223.45 21.01 224.05 21.19 224.8 21.19C225.89 21.19 226.76 20.89 227.38 20.3Z" fill="#FFFFFF" fill-opacity="1.000000" fill-rule="evenodd"/>
	</g>
</svg>
